<?xml version="1.0" encoding="utf-8"?>
<svg version="1.1" id="Layer_1" xmlns="http://www.w3.org/2000/svg" x="0px" y="0px" width="100%" viewBox="0 0 747 455" enable-background="new 0 0 747 455">
  <path fill="#2AEF4E" opacity="1.000000" stroke="none" d=" M1.000000,12.437500 C17.967297,10.010146 34.913208,7.804339 51.910877,6.121215 C60.455952,5.275074 69.093163,5.299469 77.692604,5.090858 C81.295517,5.003457 83.050606,7.129483 82.940552,10.677029 C82.821419,14.517098 80.223228,15.149529 77.091316,14.990799 C70.333611,14.648308 63.578892,14.194902 56.816830,14.007814 C51.955620,13.873318 50.874943,16.046341 50.885529,20.808556 C50.915176,34.148903 50.428471,47.492352 50.014545,60.830517 C49.892235,64.771912 49.139359,68.693512 49.012379,72.635033 C48.588501,85.792725 48.396496,98.957977 47.957317,112.115051 C47.704205,119.698051 49.659092,119.629639 56.813782,118.665565 C59.701374,118.276466 62.552990,117.154419 65.417358,117.167366 C69.787468,117.187119 70.886658,120.155182 71.074730,124.193550 C71.276276,128.521133 68.970238,129.477783 65.486725,130.010117 C55.820576,131.487244 46.191067,133.206390 36.519440,134.643936 C33.752193,135.055237 30.639046,135.550095 28.151148,134.676971 C26.114538,133.962219 23.454544,131.265747 23.461855,129.457474 C23.470556,127.305138 25.634010,123.814270 27.556665,123.245583 C36.843864,120.498566 36.864422,120.776299 37.096142,111.265533 C37.354450,100.663284 37.605053,90.057808 38.100929,79.465065 C38.981449,60.655804 39.937763,41.848465 41.103855,23.055311 C41.407032,18.169239 39.762531,16.364910 34.930962,16.965260 C26.483547,18.014891 18.021847,18.985952 9.542960,19.723591 C7.011854,19.943789 4.403482,19.275858 1.415256,19.007420 C1.000000,16.958334 1.000000,14.916667 1.000000,12.437500 z"/>
  <path fill="#2CF050" opacity="1.000000" stroke="none" d=" M303.428467,456.000000 C300.024231,449.427094 297.201721,442.774475 293.877625,436.382751 C293.464752,435.588837 290.077881,435.531250 288.601654,436.240692 C282.163635,439.334717 275.568420,441.229218 268.356018,441.020691 C258.373016,440.732056 250.170914,434.809845 248.475769,425.611145 C247.239944,418.904938 251.136566,413.425995 255.509918,409.233337 C260.764862,404.195435 266.766693,399.581146 273.210327,396.274597 C276.952881,394.354126 282.194550,395.161682 286.766144,395.105316 C291.260803,395.049896 295.961456,394.013611 299.955505,397.426392 C303.098114,400.111664 303.303070,402.968536 300.571014,406.232971 C299.705719,407.266907 298.832001,409.094543 299.160767,410.203613 C302.561646,421.675934 306.113434,433.106384 309.836670,444.478607 C311.170471,448.552612 312.763336,452.394287 308.653198,455.773926 C307.285645,456.000000 305.571289,456.000000 303.428467,456.000000 M274.085510,429.051819 C287.011475,424.916229 288.662567,422.655975 288.069794,409.908203 C287.854218,405.272491 286.132996,403.588043 281.914673,405.153564 C273.034729,408.449005 265.394653,413.708923 259.986298,421.682770 C257.893646,424.768097 259.309052,427.583069 262.965973,428.035858 C266.368805,428.457153 269.792603,428.709045 274.085510,429.051819 z"/>
  <path fill="#2CED4F" opacity="1.000000" stroke="none" d=" M476.550018,1.000000 C478.025940,6.411952 479.191864,11.801997 480.042999,17.241301 C481.152283,24.330265 482.075928,31.450344 482.959747,38.571892 C483.731598,44.791008 484.143127,51.063942 485.197205,57.230484 C485.385559,58.332283 488.076965,59.967117 489.363647,59.765656 C498.264099,58.372093 504.238983,60.463905 507.941345,66.807808 C511.632721,73.132980 510.252106,81.768051 504.509918,87.967285 C500.175110,92.647125 496.041718,97.747276 488.623169,96.944839 C487.520233,96.825531 486.193237,96.683090 485.423065,96.022774 C483.865936,94.687775 482.772552,92.812836 481.218445,91.473190 C475.306519,86.377075 472.059967,79.909386 474.580811,72.463875 C477.130646,64.932816 474.968323,57.765476 474.623749,50.530514 C474.166168,40.923313 472.390778,31.372604 471.047882,21.816414 C470.344055,16.807663 469.258881,11.852635 468.547485,6.844713 C468.305603,5.142085 468.680725,3.351804 468.386963,1.300788 C470.700012,1.000000 473.400024,1.000000 476.550018,1.000000 M493.368042,67.989548 C490.491669,68.085648 487.470764,68.185020 487.033661,71.932983 C486.428070,77.125610 486.088684,82.349289 485.634949,87.564056 C493.149139,88.066475 500.803467,79.448090 498.835358,73.067635 C498.225586,71.090797 495.793060,69.676201 493.368042,67.989548 z"/>
  <path fill="#2CEF50" opacity="1.000000" stroke="none" d=" M748.000000,105.532059 C747.324402,106.451607 746.298462,106.751175 746.026428,107.377937 C742.624451,115.216568 739.519409,123.190025 735.914490,130.931595 C734.554871,133.851578 732.299866,136.641220 728.253357,135.917542 C724.326660,135.215302 722.899170,132.007690 722.665588,128.773956 C722.520203,126.761124 723.801575,124.305061 725.133057,122.581215 C733.467224,111.791389 737.481750,99.837570 734.959045,86.243599 C734.421143,83.344841 732.509033,80.627373 730.845825,78.076942 C730.534668,77.599968 727.766296,77.834572 727.204224,78.565460 C724.686890,81.838562 721.995850,84.305023 717.548035,82.793671 C712.824280,81.188576 709.265503,76.442497 709.037964,72.000389 C708.747498,66.330505 709.655090,61.068836 712.955505,56.240871 C717.482788,49.618137 722.307922,49.199749 726.891235,55.620968 C732.718872,63.785435 738.367554,72.084282 743.852356,80.482544 C745.458618,82.941895 746.245056,85.936615 747.703613,88.342979 C748.000000,93.688042 748.000000,99.376083 748.000000,105.532059 z"/>
  <path fill="#2CEF50" opacity="1.000000" stroke="none" d=" M153.097855,232.002747 C150.846207,222.561890 148.579788,213.572876 146.355667,204.573425 C145.326202,200.407867 144.019791,196.491669 140.410294,193.646881 C139.661377,193.056641 139.384262,190.894470 139.854645,189.924881 C140.974228,187.617172 148.226395,186.365097 150.732315,187.119446 C154.907959,188.376419 159.198593,189.532990 163.518372,189.976776 C176.368515,191.296860 189.099564,193.178040 199.757416,201.090317 C209.514618,208.333969 209.857620,215.607590 199.644592,221.864624 C191.800293,226.670441 183.049927,229.996857 174.705292,233.987000 C173.754684,234.441528 172.821945,234.933411 170.958298,235.873199 C174.535339,238.114563 177.365768,239.850418 180.158600,241.644836 C190.300186,248.160965 199.739426,255.450195 203.995941,267.311340 C210.104248,284.332642 198.816849,295.706451 186.694962,301.527985 C183.184952,303.213684 179.773346,301.468994 178.080566,297.864471 C176.382431,294.248627 178.515472,291.805023 181.411682,289.986633 C183.761414,288.511353 186.429245,287.490875 188.624008,285.829987 C196.822708,279.625580 196.977188,271.667389 191.160614,263.484375 C185.640793,255.718887 177.734299,251.366577 169.706894,247.051849 C169.113983,246.733170 168.146606,247.111206 167.200134,247.175781 C167.865524,253.088104 168.513092,258.726349 169.131317,264.367798 C169.756424,270.071838 170.409180,275.773773 170.940796,281.486786 C171.281631,285.149445 169.675751,286.929199 165.791809,287.079712 C161.586014,287.242737 160.325363,285.024933 159.993286,281.428253 C159.405136,275.057892 159.001770,268.651672 158.001953,262.342712 C156.601440,253.505173 154.701080,244.747498 153.083557,235.942978 C152.876831,234.817764 153.084625,233.616409 153.097855,232.002747 M161.464661,221.004700 C162.003723,223.774063 162.210190,226.856995 166.416580,226.025284 C176.455307,224.040390 185.012558,218.714218 193.660965,213.703445 C197.315384,211.586121 196.626129,208.990341 193.101730,207.029480 C182.852585,201.327164 171.639816,199.199799 160.156891,197.825027 C156.367477,197.371368 155.396393,198.287125 156.376953,201.901672 C158.031036,207.998795 159.499176,214.146362 161.464661,221.004700 z"/>
  <path fill="#2CEE4F" opacity="1.000000" stroke="none" d=" M313.059692,204.999588 C309.262329,204.353561 305.795563,204.063385 302.660156,202.888672 C301.418274,202.423370 300.341492,200.003113 300.313080,198.452377 C300.298889,197.677032 302.806458,196.190643 304.181580,196.180893 C308.116852,196.153015 312.105072,196.431625 315.985474,197.096970 C330.742340,199.627151 345.595490,201.814972 360.128021,205.313171 C365.075562,206.504105 369.631958,210.709076 373.537964,214.411530 C376.842133,217.543488 375.024628,224.585907 370.722046,228.523926 C364.356323,234.350296 357.530731,239.771896 350.404968,244.639847 C344.552032,248.638290 338.038696,251.699768 331.705292,254.957260 C324.571136,258.626587 324.510986,258.684998 326.010132,267.046143 C327.425415,274.939270 328.923523,282.838135 329.755402,290.800262 C329.951874,292.680664 327.997406,296.027893 326.360413,296.536194 C324.414459,297.140411 320.604797,296.108368 319.638489,294.535004 C317.955933,291.795380 317.507935,288.135040 317.125824,284.793915 C316.384949,278.316040 316.048828,271.791809 315.565033,265.544769 C306.956451,263.848053 304.764099,259.062683 309.594879,253.193222 C312.200134,250.027832 312.474884,247.391891 311.092651,243.814316 C309.159546,238.810913 307.667358,233.638229 305.942841,228.552765 C304.765289,225.080292 303.436981,221.147018 307.640503,219.225479 C311.737610,217.352585 314.313812,219.388657 315.978577,224.974991 C317.901489,231.427704 319.453369,237.994324 321.524048,244.395798 C321.807159,245.271011 324.331238,246.161835 325.514252,245.859146 C328.434265,245.112000 331.431427,244.068298 333.946350,242.444794 C342.514038,236.913940 350.939606,231.156479 359.294678,225.307327 C361.236786,223.947678 363.462921,222.124451 364.102753,220.062775 C364.571991,218.550766 363.127228,215.141571 361.731995,214.582230 C356.033813,212.297897 350.117371,210.352814 344.111511,209.090958 C335.828033,207.350571 327.398254,206.292648 319.014526,205.054810 C317.220490,204.789932 315.355377,205.006332 313.059692,204.999588 z"/>
  <path fill="#2CEF4F" opacity="1.000000" stroke="none" d=" M649.958374,385.058228 C656.632935,387.696655 656.406311,394.034027 656.716431,398.849396 C657.508911,411.152985 657.133606,423.546875 656.851929,435.896149 C656.756592,440.077057 653.167542,440.944550 649.664917,440.937866 C645.624878,440.930176 644.158020,438.015900 644.160156,434.707184 C644.164062,428.616089 644.720337,422.526184 645.006409,416.433929 C645.083984,414.782745 645.018127,413.124847 645.018127,410.235626 C643.422485,411.377441 642.353577,411.802521 641.806885,412.590057 C638.812439,416.904022 635.631104,421.137085 633.149170,425.740387 C631.563843,428.680664 629.372986,429.632050 626.758118,428.819092 C624.950562,428.257080 622.788208,426.582489 622.154358,424.891571 C619.492371,417.788940 617.346069,410.492981 613.446045,401.165497 C613.279602,402.314941 613.370483,403.582458 612.905823,404.595032 C609.319031,412.411438 605.607300,420.170441 601.972534,427.965057 C600.576355,430.959167 598.649170,432.551697 595.206726,431.050354 C592.166687,429.724457 590.660278,427.435669 591.995789,424.350983 C595.662109,415.882904 599.397583,407.430450 603.522095,399.180023 C606.340576,393.542175 610.107788,388.380127 612.953308,382.753723 C614.299377,380.092102 616.209351,379.445618 618.358337,380.160553 C620.084534,380.734772 622.348755,382.286804 622.742554,383.823181 C624.475830,390.585541 625.549194,397.514313 627.023376,404.347900 C627.371887,405.963501 628.346802,407.443970 629.033569,408.986633 C630.195557,408.030640 631.606567,407.259644 632.477295,406.087341 C636.757141,400.325531 640.810364,394.394348 645.137390,388.669434 C646.260193,387.183929 648.080872,386.225891 649.958374,385.058228 z"/>
  <path fill="#2CF04F" opacity="1.000000" stroke="none" d=" M234.333069,52.269585 C244.052032,44.816669 254.780106,45.921101 265.150177,48.343872 C271.120880,49.738811 271.713837,53.769142 268.751740,58.928371 C267.938324,60.345142 267.641357,62.556095 268.090668,64.120110 C271.214935,74.994759 274.208496,85.935341 278.037842,96.568878 C280.520111,103.461617 280.702545,104.728340 275.588440,107.912552 C273.365356,109.296730 272.107117,109.242882 270.946655,106.830536 C268.355682,101.444572 265.175385,96.280579 263.186798,90.687798 C261.839050,86.897301 260.602509,86.724678 257.295074,88.166161 C248.383072,92.050240 239.588699,94.708084 229.405869,91.284760 C214.384903,86.234917 212.936325,73.140945 222.657333,62.346809 C225.988495,58.647900 230.232315,55.770908 234.333069,52.269585 M234.451279,81.073975 C250.820084,84.332306 259.586792,74.317589 255.182922,56.408409 C252.238571,57.241917 248.909393,57.438251 246.485382,59.020927 C240.886887,62.676262 235.574585,66.824371 230.477249,71.161636 C228.822586,72.569572 226.799973,75.934692 227.414474,77.080444 C228.430054,78.973969 231.450333,79.792290 234.451279,81.073975 z"/>
  <path fill="#2CF050" opacity="1.000000" stroke="none" d=" M545.471069,231.786957 C541.030396,234.614319 542.604004,238.759232 543.478638,241.792236 C546.660156,252.825058 550.192993,263.789124 554.292908,274.511627 C556.554077,280.425293 551.279419,280.360565 549.283447,283.056824 C542.878662,279.468384 541.648132,272.812134 539.190491,267.140503 C536.058472,259.912598 536.389526,259.773956 529.352234,263.187653 C520.257935,267.599182 511.082397,268.519043 501.617004,264.200562 C492.545074,260.061584 488.568939,250.953583 493.399567,242.585327 C499.068726,232.764542 507.512665,225.107483 518.282288,221.704391 C524.337280,219.791061 531.493164,220.661407 538.058472,221.280838 C543.478271,221.792191 547.043274,227.360306 545.471069,231.786957 M522.915344,232.039032 C516.508301,236.944870 509.869049,241.583466 503.789581,246.866257 C500.621338,249.619339 501.499725,252.193695 505.242767,254.133224 C511.588806,257.421570 524.620300,253.852814 529.431152,248.441269 C534.579651,242.649918 529.663574,236.899033 531.262939,230.519516 C528.127991,231.124191 525.931335,231.547867 522.915344,232.039032 z"/>
  <path fill="#2CEF4F" opacity="1.000000" stroke="none" d=" M331.719604,408.259888 C330.523926,403.609253 329.318207,399.306763 328.781250,394.922333 C328.641083,393.777832 330.662354,391.265106 331.551880,391.328644 C333.383514,391.459381 336.039612,392.456757 336.735992,393.886688 C339.491669,399.545197 341.610260,405.513000 343.989624,411.356140 C344.771179,413.275421 345.627197,415.164398 346.449158,417.067200 C346.985138,417.194427 347.521088,417.321655 348.057068,417.448883 C350.649872,410.719513 353.242645,403.990112 355.862488,397.190460 C363.042114,396.884827 363.051453,397.036926 365.038330,404.511292 C366.020996,408.207825 367.619385,411.740662 368.939178,415.347534 C369.581238,415.301514 370.223328,415.255524 370.865387,415.209503 C372.584534,406.740967 374.185028,398.245361 376.108246,389.823425 C376.575287,387.778137 377.693176,384.859192 379.231079,384.291992 C382.505371,383.084229 384.975464,384.994385 385.274292,388.692261 C385.542480,392.010590 386.262939,395.528412 385.511536,398.652222 C382.247375,412.222656 378.707916,425.737335 374.753174,439.119965 C374.157898,441.134491 371.019653,442.935211 368.690521,443.668579 C367.557343,444.025391 364.905670,442.035797 364.116364,440.503235 C362.367584,437.107544 361.380310,433.322418 360.041992,429.711090 C359.561432,428.414307 358.964569,427.160614 357.765381,424.352631 C356.036835,429.251190 355.130402,432.857483 353.482513,436.085205 C352.553772,437.904419 350.597809,439.503784 348.721771,440.407806 C347.767395,440.867706 345.298309,439.991272 344.669922,438.992004 C342.522217,435.576630 340.615265,431.947632 339.116791,428.200104 C336.532990,421.738342 334.324890,415.126373 331.719604,408.259888 z"/>
  <path fill="#2BEF4F" opacity="1.000000" stroke="none" d=" M179.263763,101.745987 C177.248047,97.807320 175.493515,94.152962 173.219421,89.416466 C171.567490,94.807190 170.831299,98.662231 169.143066,102.041679 C168.413681,103.501709 164.912720,105.210014 164.072495,104.660851 C161.960815,103.280708 159.419205,100.788979 159.218628,98.548775 C158.128937,86.378288 158.310715,74.076111 156.874054,61.959270 C155.248016,48.245323 152.378906,34.678440 150.036743,21.049942 C149.401306,17.352512 148.530701,13.684819 148.104736,9.964922 C147.634979,5.862581 149.271713,4.882070 156.594788,5.300394 C158.986557,14.931464 161.917526,24.863861 163.836609,34.988068 C165.751144,45.088291 166.594620,55.389004 168.071976,65.577995 C168.248276,66.793945 169.512695,68.877731 170.176575,68.840584 C177.807404,68.413605 178.937469,75.162827 181.973145,79.522232 C184.142426,82.637421 185.969635,86.280243 186.811996,89.948814 C187.658875,93.637154 189.513657,93.905594 192.612030,94.216309 C194.803635,94.436096 197.875229,95.786995 198.704971,97.518837 C200.207474,100.654823 198.233688,102.783943 194.702087,103.727264 C190.326035,104.896156 186.110443,107.297440 181.556152,104.704430 C180.661560,104.195091 180.191040,102.940933 179.263763,101.745987 z"/>
  <path fill="#2DEF50" opacity="1.000000" stroke="none" d=" M406.894592,225.658081 C409.280304,224.582565 411.357697,223.685089 413.486908,222.934509 C416.452118,221.889236 419.121826,220.760803 421.433380,224.695312 C423.833160,228.779846 422.978912,231.601517 419.474792,233.921997 C416.936859,235.602646 414.013702,236.689087 411.380676,238.241287 C405.693665,241.593826 403.118347,246.739410 402.843597,253.343018 C407.886902,255.309265 412.272339,253.634644 415.920410,250.959213 C420.527557,247.580414 424.830963,243.652908 428.683380,239.431030 C430.909210,236.991714 430.819000,233.829849 427.801697,231.165466 C426.191864,229.743958 424.729126,227.634689 424.290802,225.600754 C424.022308,224.355087 425.673950,221.531952 426.719727,221.396484 C429.309479,221.060928 432.783966,220.934189 434.595062,222.371552 C441.846313,228.126450 444.345062,239.247009 437.146210,248.328278 C430.960999,256.130859 423.826935,262.903198 414.066315,265.880890 C408.773376,267.495636 402.938416,269.257599 397.961670,265.286743 C391.797546,260.368469 389.815216,254.022995 391.867004,246.019943 C394.138885,237.158218 399.777435,231.196930 406.894592,225.658081 z"/>
  <path fill="#2CEF50" opacity="1.000000" stroke="none" d=" M525.075562,421.896973 C527.758423,407.591919 537.541321,400.196655 549.689880,395.359985 C551.140747,394.782349 553.817566,397.284119 556.217957,398.507263 C560.609375,395.365906 565.276733,395.087494 569.209290,397.611176 C574.304932,400.881195 576.450867,410.453369 574.564148,414.585541 C568.588135,427.673706 558.680969,437.106506 544.701355,440.792053 C531.770142,444.201233 521.890137,434.343201 525.075562,421.896973 M546.034119,411.437378 C543.071716,414.826202 539.881836,418.051849 537.270569,421.692505 C536.357849,422.964966 536.122437,426.321350 536.890808,426.862762 C538.403992,427.929199 541.094116,428.454559 542.841675,427.861328 C549.887329,425.469666 556.149414,421.578857 560.732849,415.595978 C565.162415,409.813934 564.129700,405.976044 558.659485,402.740295 C554.314941,405.698334 550.459167,408.323608 546.034119,411.437378 z"/>
  <path fill="#2DF051" opacity="1.000000" stroke="none" d=" M669.772583,80.271896 C672.619385,85.040382 676.061035,87.994385 681.701111,87.043068 C682.349792,86.933662 683.063477,86.886574 683.692017,87.038345 C686.109070,87.621956 688.503662,88.298264 690.906677,88.939995 C688.963135,90.934998 687.353638,93.539474 685.018188,94.819237 C675.023560,100.295975 665.009094,94.294258 659.242004,86.257210 C655.211670,80.640495 652.197632,74.296120 648.689087,68.300514 C648.378845,67.770226 647.767761,67.415947 646.699890,66.428207 C645.966492,67.961609 645.415100,69.156891 644.828125,70.334381 C642.201660,75.602867 639.876465,81.060677 636.772461,86.031715 C635.601685,87.906654 632.605591,89.653374 630.468384,89.622200 C628.425049,89.592400 625.547729,87.627243 624.561218,85.723129 C621.965942,80.713707 620.511108,75.120811 618.006531,70.054688 C615.925537,65.845245 618.554260,63.168945 620.962280,61.448215 C622.017334,60.694351 625.709656,63.074722 627.836731,64.558868 C629.453430,65.686989 630.489136,67.647720 632.276550,69.844055 C635.509705,63.896965 638.355835,58.656796 641.211853,53.422062 C641.369507,53.133209 641.578308,52.855816 641.817383,52.630543 C643.797485,50.765160 646.350586,47.051662 647.662170,47.446411 C650.361145,48.258743 653.043091,50.880581 654.590759,53.446228 C659.833435,62.137669 664.578125,71.129478 669.772583,80.271896 z"/>
  <path fill="#2DF050" opacity="1.000000" stroke="none" d=" M556.186523,71.223343 C552.690857,73.646034 549.500610,75.892708 546.186584,77.938995 C542.135803,80.440254 541.740112,82.328011 545.102966,85.592476 C546.729431,87.171341 548.603882,88.540161 550.518127,89.766701 C553.500366,91.677567 555.077698,95.850319 553.440430,98.026825 C551.949707,100.008476 544.688232,101.661232 543.173523,100.064163 C540.075989,96.798271 537.224976,93.292526 534.366089,89.808731 C532.839844,87.948921 531.913269,85.212929 530.003296,84.133850 C526.288757,82.035172 526.596130,78.879486 527.275146,75.963821 C528.518738,70.623764 530.240356,65.372147 532.091248,60.201271 C535.727478,50.042622 546.345215,41.421562 557.428528,42.046101 C561.855957,42.295586 565.449219,45.953945 566.004517,50.462780 C566.992798,58.487614 562.792480,64.142326 557.858276,69.553993 C557.410156,70.045509 556.911926,70.491402 556.186523,71.223343 M544.303955,64.942429 C547.244446,62.571018 550.184937,60.199608 553.567810,57.471455 C548.656128,55.945240 543.440613,60.442726 544.303955,64.942429 z"/>
  <path fill="#2CEF4F" opacity="1.000000" stroke="none" d=" M325.225922,85.571533 C325.772156,88.616859 326.720398,91.389023 326.261017,93.904114 C326.030243,95.167595 323.352570,96.398315 321.577881,96.858315 C319.474579,97.403481 317.633850,97.073341 316.870117,94.011360 C314.991730,86.480675 312.555176,79.089211 310.198242,71.154083 C307.800598,71.389656 304.938507,71.713211 302.068909,71.942917 C297.728882,72.290321 296.640717,69.065674 296.837036,65.993393 C297.037689,62.853008 297.271729,58.962566 302.349884,59.007610 C308.214294,59.059628 308.371704,58.302464 307.508850,52.682350 C306.093170,43.461601 304.926941,34.181870 304.249908,24.883728 C304.091492,22.708080 306.313049,20.359127 307.439575,18.089897 C309.615692,19.829693 313.092926,21.192537 313.726410,23.379248 C315.708405,30.220539 316.629517,37.370461 317.934235,44.405884 C318.321686,46.495197 318.810577,48.591324 318.920502,50.701641 C319.239838,56.833618 320.355743,57.567299 326.685181,58.187492 C332.068573,58.714985 337.380035,60.108204 342.675201,61.327366 C344.371674,61.717960 345.914490,62.775623 347.527618,63.528084 C347.018250,64.505554 346.508881,65.483025 345.999481,66.460495 C340.136963,67.294044 334.287018,68.650818 328.407837,68.792503 C323.857208,68.902176 322.299652,70.495567 322.971161,74.658615 C323.540680,78.189507 324.345612,81.682434 325.225922,85.571533 z"/>
  <path fill="#2CF050" opacity="1.000000" stroke="none" d=" M711.761230,408.544037 C706.448975,414.061371 701.821594,419.927734 696.027893,424.219849 C689.788147,428.842438 689.281860,433.443359 696.092834,437.621338 C701.033386,440.651947 701.033386,440.651917 700.829895,446.193512 C691.532288,450.608307 691.570129,449.561188 684.277161,441.393646 C681.032898,437.760315 678.176575,433.757965 675.389954,429.752136 C674.543823,428.535828 673.824524,426.522491 674.233826,425.258453 C676.604980,417.935699 678.899353,410.534119 682.043396,403.528900 C686.216675,394.230469 697.031189,388.960052 707.040710,389.985840 C711.774841,390.470978 714.724915,399.562805 713.634155,403.649292 C713.218445,405.206604 712.508484,406.685364 711.761230,408.544037 M698.082947,408.485229 C698.811584,407.228699 699.540161,405.972137 700.554932,404.222015 C694.654602,404.951050 691.198730,408.187012 690.423523,413.772461 C693.151001,411.954895 695.353455,410.487213 698.082947,408.485229 z"/>
  <path fill="#2DF050" opacity="1.000000" stroke="none" d=" M379.203339,80.491203 C378.895172,85.893745 383.081604,87.832367 386.312653,89.973335 C389.613647,92.160629 390.999268,94.580742 389.326019,97.988304 C388.114227,100.456223 380.806702,101.500763 378.961517,99.602646 C375.938110,96.492455 373.175018,93.122261 370.399445,89.780907 C368.860870,87.928734 367.918854,85.201813 366.002380,84.125542 C362.532867,82.177124 362.425781,79.204529 363.205414,76.479141 C365.156189,69.659599 367.084747,62.709972 370.162262,56.365543 C374.745514,46.916958 382.751770,41.965305 393.510040,42.085819 C398.047577,42.136646 401.496490,45.619267 401.983215,50.228775 C402.983368,59.700729 397.688721,66.133385 391.310852,71.790176 C387.699799,74.993004 383.372040,77.387772 379.203339,80.491203 M388.079956,56.411976 C383.626007,57.363926 380.280212,59.525017 378.341858,65.422119 C383.839630,63.554417 387.101776,61.287758 388.079956,56.411976 z"/>
  <path fill="#2CF04F" opacity="1.000000" stroke="none" d=" M412.224976,440.723633 C409.507599,437.312073 406.774811,434.338623 404.691711,430.964142 C403.576538,429.157593 402.707306,426.416992 403.236359,424.518494 C405.131622,417.717041 407.090698,410.819427 410.105316,404.470856 C414.482666,395.252533 422.191620,390.201477 432.646057,390.062439 C439.029114,389.977509 444.075928,396.839722 442.313873,403.132416 C439.278564,413.972412 431.350677,420.524902 422.134521,425.908173 C420.685425,426.754608 419.192535,427.526093 416.344421,429.085266 C420.683716,432.657227 424.339294,435.216003 427.379211,438.368469 C428.791809,439.833344 429.290466,442.411285 429.600891,444.571289 C429.698700,445.252014 427.860229,446.241058 426.870514,447.042847 C422.200500,450.826050 418.852478,447.944031 415.639435,444.731171 C414.490112,443.581909 413.527679,442.245758 412.224976,440.723633 M427.464844,403.996185 C423.427948,405.667725 420.037048,407.926056 418.810516,412.893005 C423.435669,412.067535 428.085114,407.425323 427.464844,403.996185 z"/>
  <path fill="#2CEF4F" opacity="1.000000" stroke="none" d=" M96.029495,417.074097 C93.441597,423.794922 96.744278,429.654999 98.357262,435.702576 C100.009506,441.897400 97.893677,445.799469 92.613777,444.818146 C91.054588,444.528320 89.152519,442.490753 88.627708,440.861145 C86.549026,434.406647 84.952507,427.796783 83.182426,421.243134 C83.015587,420.625427 82.884933,419.997955 82.583168,418.722992 C80.620461,419.130981 78.778473,419.526733 76.931046,419.895233 C73.169220,420.645538 69.470894,418.453186 69.001022,415.208099 C68.266983,410.138550 70.376457,407.312988 75.078362,407.067657 C79.876999,406.817261 80.746620,404.873993 79.782509,399.275696 C78.288147,390.598297 77.011322,381.860443 76.252586,373.095398 C76.059158,370.860931 77.578339,367.156860 79.332764,366.349731 C83.007446,364.659241 85.096596,367.948547 85.893661,371.077881 C87.493629,377.359497 88.766159,383.734314 89.920189,390.116516 C90.786606,394.908020 91.256798,399.771118 91.846138,404.174591 C100.699974,407.417511 110.652527,404.817047 118.324913,413.254425 C115.293961,414.164856 112.316460,415.413361 109.218994,415.903137 C105.017555,416.567413 100.724243,416.650604 96.029495,417.074097 z"/>
  <path fill="#2DEF50" opacity="1.000000" stroke="none" d=" M467.774719,429.756439 C471.467499,426.425110 475.087646,423.512726 478.212708,420.141449 C480.389191,417.793488 478.115479,411.318848 474.470947,406.836304 C472.545410,404.468018 470.883575,401.765106 469.668060,398.967621 C467.790161,394.645630 470.062134,388.870453 474.210571,387.469269 C483.012482,384.496155 491.798004,381.353119 501.375183,381.974518 C504.537231,382.179688 506.466766,382.757812 507.136200,386.515076 C507.835052,390.437531 506.049194,391.369049 503.006714,392.032288 C497.311768,393.273651 491.619110,394.540222 485.974670,395.988098 C484.498169,396.366852 483.202698,397.451263 481.856842,398.193542 C485.204468,405.610260 490.391388,411.601868 490.129059,420.113098 C489.939941,426.249237 486.693329,430.432465 483.022369,434.094452 C478.725098,438.381256 473.030060,441.235443 468.488129,445.319214 C465.268219,448.214325 462.906433,446.307892 461.409393,444.421539 C460.093658,442.763611 459.257202,439.223938 460.164886,437.627289 C461.856628,434.651550 464.969421,432.483643 467.774719,429.756439 z"/>
  <path fill="#2CEF50" opacity="1.000000" stroke="none" d=" M159.254639,401.580170 C161.597794,406.746124 164.470551,411.398346 165.721817,416.452026 C167.057007,421.844727 165.659271,427.338593 161.167175,431.241577 C155.349060,436.296692 149.295364,441.079956 143.370895,446.013641 C140.093124,448.743256 138.094543,445.184967 136.870590,443.823517 C135.548325,442.352814 134.950775,438.366730 136.007446,436.989655 C138.609558,433.598358 142.359131,431.093811 145.613068,428.194275 C148.193939,425.894531 151.335602,423.913300 153.073959,421.081909 C154.355392,418.994781 154.713425,415.391693 153.813980,413.126892 C152.292023,409.294434 149.370758,406.034729 147.180984,402.446869 C142.774445,395.226837 145.052292,387.669678 154.513458,385.348236 C162.041519,383.501129 169.918228,383.070740 177.642654,382.029938 C181.394699,381.524384 182.447006,383.918243 182.941010,386.969269 C183.479446,390.294556 182.043320,391.508728 178.771942,392.065277 C172.857498,393.071472 167.038971,394.646851 161.187149,396.013550 C158.050125,396.746216 157.277527,398.488708 159.254639,401.580170 z"/>
  <path fill="#2DEF50" opacity="1.000000" stroke="none" d=" M590.978394,255.897568 C590.816528,260.216064 592.194702,264.594513 587.139954,266.782684 C581.625671,265.413361 579.793701,261.582611 578.812561,255.915344 C577.580872,248.801224 574.673035,241.979309 572.523987,235.020370 C572.059326,233.515732 571.076965,231.727539 571.515625,230.488693 C572.219238,228.501450 573.676025,225.720642 575.248901,225.398941 C576.829163,225.075745 579.060730,227.197128 580.765930,228.550766 C581.563660,229.184082 581.793884,230.532135 582.522400,232.062683 C586.320251,229.275070 589.771606,226.236176 593.692749,224.033707 C596.510010,222.451263 599.903931,221.474091 603.132568,221.154221 C606.991333,220.771896 610.568726,226.941711 608.651672,230.341293 C608.153625,231.224564 606.570068,231.809906 605.412109,231.956985 C596.548401,233.082809 591.091187,239.042175 590.983521,247.934006 C590.953308,250.429810 590.978455,252.926285 590.978394,255.897568 z"/>
  <path fill="#2BED4E" opacity="1.000000" stroke="none" d=" M470.955475,225.756027 C472.281769,237.452606 473.713013,248.665237 474.890686,259.904449 C475.371857,264.496796 472.826843,267.941864 469.525940,267.963562 C466.266937,267.984985 463.317810,264.103485 462.993744,260.044617 C461.806519,245.173950 460.397369,230.320984 459.212036,215.450165 C458.824921,210.593369 458.631378,205.694275 458.801422,200.830322 C458.898804,198.044037 460.459839,195.171417 463.749115,196.270386 C465.810333,196.959061 468.304688,199.276367 468.761292,201.282501 C470.024811,206.833923 470.402527,212.597534 470.960541,218.293900 C471.186554,220.601318 470.972260,222.951859 470.955475,225.756027 z"/>
  <path fill="#2EED51" opacity="1.000000" stroke="none" d=" M238.948914,239.360519 C239.334915,248.839188 239.843246,257.901184 239.875290,266.964874 C239.879990,268.292114 237.632019,270.689178 236.401276,270.705566 C234.635956,270.729065 232.190552,269.441437 231.228333,267.945984 C229.899261,265.880463 229.187393,263.120972 229.082962,260.622223 C228.813187,254.167923 229.155533,247.690063 228.982346,241.228867 C228.896622,238.030701 229.461884,235.128403 232.646072,234.165558 C236.408813,233.027771 237.697067,236.179993 238.948914,239.360519 z"/>
  <path fill="#2AED4E" opacity="1.000000" stroke="none" d=" M49.812538,411.626648 C50.453556,417.860992 51.004177,423.704865 51.466286,429.555695 C51.707989,432.615936 51.680752,435.699554 51.979076,438.752686 C52.359947,442.650543 49.653385,444.769257 46.849590,444.586548 C44.829361,444.454865 41.543995,441.571045 41.334610,439.642120 C40.411552,431.138702 40.149277,422.533569 40.245388,413.971985 C40.267521,412.000244 42.271946,409.191162 44.079216,408.399139 C45.298855,407.864655 47.772621,410.191925 49.812538,411.626648 z"/>
  <path fill="#2CED50" opacity="1.000000" stroke="none" d=" M590.978821,93.815033 C590.279053,88.932053 589.398132,84.460800 589.106079,79.951416 C588.795471,75.153465 588.790222,70.298218 589.191956,65.513367 C589.321167,63.974888 591.028870,61.528713 592.258179,61.368511 C594.067627,61.132698 596.698730,62.060665 597.871338,63.437191 C599.206787,65.004784 599.724670,67.578949 599.895752,69.770454 C600.420959,76.496803 600.872192,83.253304 600.770935,89.989349 C600.740417,92.019424 599.241943,94.498009 597.655457,95.926765 C595.108154,98.220757 592.891479,96.276543 590.978821,93.815033 z"/>
  <path fill="#2CEC51" opacity="1.000000" stroke="none" d=" M258.959290,238.626831 C265.835815,239.063065 272.442352,239.581848 278.950348,240.683289 C280.355347,240.921082 281.405243,243.257248 282.618683,244.626862 C281.044556,245.726105 279.580597,247.520966 277.875153,247.791046 C273.203094,248.530930 268.433105,248.792007 263.694183,248.898193 C261.912140,248.938126 258.723389,248.301865 258.566681,247.504120 C258.026306,244.754013 258.541107,241.796555 258.959290,238.626831 z"/>
  <path fill="#2EEA50" opacity="1.000000" stroke="none" d=" M45.712845,384.936340 C42.811646,384.286682 40.119778,383.994263 37.862724,382.846680 C33.651215,380.705261 33.106552,374.399719 37.025692,371.856842 C38.307240,371.025299 41.637283,371.333038 42.638771,372.411774 C49.698551,380.016144 50.189220,381.670502 47.383583,384.139313 C47.018898,384.460266 46.542858,384.654694 45.712845,384.936340 z"/>
  <path fill="#2EEA51" opacity="1.000000" stroke="none" d=" M590.647339,36.820904 C588.235718,35.356064 585.247620,34.416691 584.452698,32.545540 C583.580505,30.492790 584.262085,27.377758 585.231262,25.144133 C585.615234,24.259081 589.149902,23.656590 590.280273,24.400003 C592.827759,26.075377 595.338135,28.346825 596.831055,30.964586 C599.329651,35.345734 597.512390,37.047771 590.647339,36.820904 z"/>
  <path fill="#2DEA50" opacity="1.000000" stroke="none" d=" M233.759888,210.983185 C230.561722,209.807373 227.486237,209.019455 225.035370,207.326981 C222.252579,205.405319 222.274551,200.600510 225.265289,198.843445 C226.827682,197.925537 229.861710,198.728973 231.869965,199.593643 C233.572586,200.326706 234.908966,202.143997 236.138504,203.694717 C238.873001,207.143478 238.331238,208.915558 233.759888,210.983185 z"/>
</svg>